<?xml version="1.0" encoding="UTF-8"?>
<svg id="Layer_2" data-name="Layer 2" xmlns="http://www.w3.org/2000/svg" viewBox="0 0 283.46 114.3">
  <defs>
    <style>
      .cls-1 {
        fill: #fff;
      }
    </style>
  </defs>
  <g id="Layer_1-2" data-name="Layer 1">
    <g>
      <path class="cls-1" d="M264.38,34.24c.3.33.71.5,1.15.5.55,0,1.07-.29,1.36-.76.29-.46.31-1.04.06-1.53l-.54-1.08c-1.71-3.38-4.04-6.16-6.1-8.43-4.19-4.62-9.07-8.56-13.78-12.36-.99-.8-1.99-1.6-2.97-2.41-2.42-1.98-4.92-4.02-8.88-4.13-5.62-.14-11.21-1.07-16.62-1.97-5.6-.93-11.35-1.48-17.09-1.66-8.1-.24-14.85-.43-21.86-.43-11.4,0-20.78.52-29.53,1.65-6.15.79-11.73,1.68-17.06,2.72-5.35,1.04-10.59,2.66-15.65,4.22l-.38.12c-6.73,2.07-13.04,4.54-18.77,7.33-5.84,2.84-11.66,5.95-17.29,8.95-3.19,1.7-6.49,3.46-9.75,5.15l-.05.03c-2.48,1.28-4.82,2.49-7.47,2.88-1.89.28-3.47.52-5.1.87-1.11.24-2.23.48-3.34.71-4,.85-8.14,1.73-12.18,2.74-4.23,1.05-7.9,2.39-11.21,4.09-2.34,1.2-1.8,2.9-1.43,4.02,1.52,4.71.53,7.43-3.39,9.39-3.9,1.96-8.08,2.42-12.49,2.91-.65.07-1.3.14-1.94.22-1.18.14-2.35.35-3.48.56-1.21.22-2.47.45-3.69.58-1.55.16-2.68,1.25-3.09,2.98-.94,3.96-1.19,8.32-.76,13.34.29,3.41,1.31,8.13,6.79,9.69.06.02.13.04.2.06.29.09.64.21,1.04.21.51,0,.95-.19,1.3-.54.52-.54.91-1.45-.23-2.71l-.08-.09c-1.62-1.84-2.18-4.04-1.94-7.59.12-1.77.26-3.78.07-5.75-.11-1.16.26-1.73,1.42-2.17,1.27-.48,2.3-.79,3.24-.95,1.75-.31,3.53-.66,5.24-.99,1.79-.35,3.65-.71,5.48-1.03,2.21-.39,4.36-1.07,6.39-2.01,6.34-2.95,7.39-8.83,7.63-13,.07-1.28.54-1.72,1.22-1.98,2.59-1.01,5.35-1.9,7.78-2.68,4.32-1.39,8.91-2.13,13.34-2.85.78-.13,1.56-.25,2.34-.38,5.1-.85,9.96-2.75,15.74-6.17,8.2-4.85,15.14-8.45,21.82-11.34,9.65-4.17,18.63-7.36,27.47-9.76,5.26-1.43,10.87-2.72,17.15-3.95,8.63-1.69,17.53-2.19,25.2-2.53,5.07-.23,10.14-.34,15.06-.34,9.01,0,17.92.38,26.48,1.14.62.06,1.25.11,1.87.16,2.99.25,6.08.51,9.07,1.08,3.92.75,8.28,1.36,13.74,1.91,1.43.12,2.04.6,2.81,1.2.4.31.85.67,1.43.97q12.13,9.22,17.51,14.76c1.08,1.11,2.13,2.05,3.15,2.96,1.18,1.05,2.39,2.13,3.67,3.5Z"/>
      <path class="cls-1" d="M282.66,63.88c-.12-.81-.24-1.63-.34-2.44l-.07-.57c-.4-3.09-.85-6.58-3.18-9.47-.4-.49-.78-1.33-.74-2.09.1-2.19-.28-4.3-.65-6.35-.17-.92-.34-1.86-.46-2.78-.57-4.42-1.97-8.39-4.15-11.8-3-4.69-6.61-8.29-10.44-12.11l-1.1-1.1c-1.06-1.06-2.23-2.06-3.37-3.03-2.85-2.43-5.55-4.73-6.84-8.06-.27-.7-1.4-1.76-2.49-1.76-.35,0-.68.11-.95.31-.74.56-1.27,1.22-1.79,1.86-.22.28-.43.54-.65.78-.36.4-.52.93-.42,1.45.11.6.53,1.12,1.18,1.45,3.49,1.8,6.71,4.44,10.43,8.57,1.24,1.38,2.58,2.67,3.88,3.92,2.54,2.44,4.94,4.75,6.69,7.68,3.82,6.37,4.94,11.65,3.63,17.11-.52,2.18.5,3.69,1.31,4.64,2.84,3.33,4.09,6.48,3.95,9.9-.05,1.22-.06,2.84.3,4.49.12.56.27,1.1.41,1.63.52,1.98.98,3.69.33,5.71-1.46,4.55-3.67,7.72-6.97,9.97-3.23,2.2-6.49,3.28-9.98,3.28h0c-.41,0-.8.22-1.01.57l-.42.71c-.28.48-.17,1.09.27,1.43h0c.28.22.56.43.85.64.61.45,1.23.92,1.81,1.41,1.27,1.06,2.7,1.62,4.12,1.62.55,0,1.11-.08,1.65-.25,2.47-.74,4.42-1.56,6.14-2.57,6.72-3.91,9.95-9.34,9.88-16.6-.03-2.78-.42-5.51-.81-8.15Z"/>
      <path class="cls-1" d="M7.46,57.01c.37,0,2.18-.15,2.29-.15,2.67,0,5.02-.6,7.29-1.19.43-.11.86-.22,1.3-.33,1.38-.34,2.65-.85,3.88-1.34.69-.28,1.35-.54,2.03-.77,1.61-.56,2.75-1.38,3.72-2.67.63-.83,1.67-2.23.7-3.98-.86-1.55-2.4-1.57-3.42-1.58h-.41c-2.59,0-4.83,1-6.98,1.98l-.99.44c-2.98,1.34-6.06,2.72-8.85,4.66-.12.08-.24.16-.37.25-1.19.8-2.82,1.9-2.24,3.35.2.49.73,1.32,2.06,1.32Z"/>
      <path class="cls-1" d="M23.78,87.21c-.57-.29-1.01-.42-1.41-.42-.45,0-.86.18-1.15.49-.53.59-.45,1.45-.42,1.73.02.2,0,.32,0,.38-.06.01-.17.03-.37.03-.12,0-.24,0-.37-.02-.49-.03-.99-.06-1.48-.09-1.9-.11-3.7-.2-5.5-.7-.62-.17-1.24-.33-1.87-.49-3.43-.87-6.66-1.7-9.24-4.5l-.47-.51c-.41-.45-1.16-.23-1.27.36l-.13.69c-.42,2.22.71,3.44,1.53,4.33l.07.07c4.58,4.97,10.63,7.28,19.03,7.28.44,0,.88,0,1.32-.02,2.11-.06,3.68-1.28,4.33-3.37.39-1.28.58-3.65-2.59-5.26Z"/>
    </g>
    <g>
      <path class="cls-1" d="M181.13,57.54c-1.67-1.06-3.57-1.6-5.7-1.6h-14.49c-3.73,0-6.75.7-9.04,2.1-2.3,1.4-4.05,3.93-5.25,7.6h14.09c.53,0,.73.27.6.8l-6.4,19.19c-.07.27-.27.4-.6.4h-14.49c.07,1.62.45,3.03,1.15,4.24.7,1.21,1.58,2.24,2.65,3.08,1.06.84,2.28,1.48,3.65,1.92,1.37.44,2.78.66,4.25.66h10.49c3.8,0,6.83-.71,9.09-2.15,2.26-1.43,4-3.98,5.2-7.64l6.8-20.39c.33-1.13.5-2.13.5-3,0-2.4-.83-4.13-2.5-5.2Z"/>
      <path class="cls-1" d="M146,66.93c.97-2.86,1.76-5.26,2.4-7.2.63-1.93.95-2.96.95-3.1,0-.47-.2-.7-.6-.7h-35.38c-.53,0-.83.2-.9.6l-3.2,8.89c-.13.47.04.7.5.7h13.79c.4,0,.6.2.6.6l-.1.2c-.27.6-.82,2.17-1.65,4.7-.83,2.53-1.82,5.53-2.95,8.99-1.13,3.47-2.33,7.13-3.6,10.99-1.27,3.86-2.41,7.43-3.45,10.69-1.03,3.26-2.25,7.06-3.65,11.39,0,.4.17.6.5.6h20.49c.2,0,.37-.13.5-.4.33-.87.63-1.73.9-2.6.26-.87.56-1.77.9-2.7l3.5-10.39c.2-.6.67-2.02,1.4-4.25.73-2.23,1.61-4.86,2.65-7.89,1.03-3.03,2.11-6.26,3.25-9.69,1.13-3.43,2.18-6.58,3.15-9.44Z"/>
      <path class="cls-1" d="M205.67,40.98H66.7c-3.73,0-6.71.74-8.94,2.22-2.23,1.48-3.95,4.04-5.15,7.67h18.09c.4,0,.6.17.6.5,0,.2-.22.98-.65,2.33-.43,1.36-.93,2.86-1.5,4.52-.57,1.65-1.12,3.24-1.65,4.77-.53,1.52-.87,2.52-1,2.98h-8.09c-.34,0-.63.2-.9.6,0,.07-.2.7-.6,1.9-.4,1.2-.82,2.5-1.25,3.9-.43,1.4-1.02,3.3-1.75,5.7,0,.33.17.5.5.5h7.89c-.2.53-.52,1.47-.95,2.8-.43,1.33-.95,2.87-1.55,4.6-.6,1.73-1.22,3.56-1.85,5.5-.63,1.93-1.23,3.71-1.8,5.35-.57,1.63-1.02,3.02-1.35,4.15-.33,1.13-.5,1.77-.5,1.9s.07.22.2.25c.13.03.23.05.3.05h20.19c.47,0,.77-.2.9-.6l7.99-23.98h18.79c.33,0,.63-.23.9-.7.07-.2.32-.9.75-2.1.43-1.2.87-2.48,1.3-3.85.43-1.36.83-2.61,1.2-3.75.37-1.13.55-1.76.55-1.9,0-.2-.14-.3-.4-.3h-18.89l4.9-14.5c.07-.4.37-.59.9-.59h108.13c.4,0,.6.17.6.5,0,.2-.22.98-.65,2.33-.43,1.36-.93,2.86-1.5,4.52-.57,1.65-1.12,3.24-1.65,4.77-.53,1.52-.87,2.52-1,2.98h-8.09c-.34,0-.63.2-.9.6,0,.07-.2.7-.6,1.9-.4,1.2-.82,2.5-1.25,3.9-.43,1.4-1.02,3.3-1.75,5.7,0,.33.17.5.5.5h7.89c-.2.53-.52,1.47-.95,2.8-.43,1.33-.95,2.87-1.55,4.6-.6,1.73-1.22,3.56-1.85,5.5-.63,1.93-1.23,3.71-1.8,5.35-.57,1.63-1.02,3.02-1.35,4.15-.33,1.13-.5,1.77-.5,1.9s.07.22.2.25c.13.03.23.05.3.05h20.19c.47,0,.77-.2.9-.6l7.99-23.98h18.79c.33,0,.63-.23.9-.7.07-.2.32-.9.75-2.1.43-1.2.87-2.48,1.3-3.85.43-1.36.83-2.61,1.2-3.75.37-1.13.55-1.76.55-1.9,0-.2-.14-.3-.4-.3h-18.89l4.9-14.5c.07-.4.37-.59.9-.59h29.78c3.6,0,6.53-.79,8.8-2.37,2.26-1.58,3.96-4.09,5.1-7.52h-63.2Z"/>
    </g>
  </g>
</svg>