<?xml version="1.0" encoding="UTF-8"?>
<svg xmlns="http://www.w3.org/2000/svg" xmlns:xlink="http://www.w3.org/1999/xlink" width="200px" height="50px" viewBox="0 0 200 50" version="1.1">
<g id="surface1">
<path style=" stroke:none;fill-rule:nonzero;fill:rgb(0%,0%,0%);fill-opacity:1;" d="M 86.078125 38.207031 L 86.078125 48.769531 C 86.078125 49.140625 86.078125 49.0625 85.753906 49.0625 L 79.128906 49.0625 C 78.757812 49.0625 78.808594 49.0625 78.808594 48.742188 L 78.808594 41.472656 L 72.359375 41.273438 C 72.160156 41.273438 72.160156 41.273438 72.160156 41.519531 L 72.160156 48.890625 C 72.160156 49.261719 72.160156 49.085938 71.960938 49.085938 L 65.183594 49.085938 C 64.859375 49.085938 64.886719 49.085938 64.886719 48.792969 L 64.886719 27.523438 L 71.914062 27.300781 C 72.160156 27.300781 72.136719 27.300781 72.136719 27.546875 L 72.136719 34.644531 C 72.136719 35.042969 72.136719 34.992188 72.484375 34.992188 L 78.664062 34.992188 C 78.761719 34.992188 78.8125 34.992188 78.8125 34.867188 L 78.8125 27.695312 C 78.8125 27.324219 78.8125 27.375 79.132812 27.375 L 85.808594 27.375 C 86.105469 27.375 86.078125 27.375 86.078125 27.644531 Z M 86.078125 38.207031 "/>
<path style=" stroke:none;fill-rule:nonzero;fill:rgb(0%,0%,0%);fill-opacity:1;" d="M 28.933594 40.777344 C 28.855469 40.777344 28.933594 40.855469 28.933594 40.902344 L 28.933594 42.90625 C 28.933594 43.082031 28.933594 43.082031 29.128906 43.105469 L 40.203125 43.105469 C 40.574219 43.105469 40.523438 43.105469 40.523438 43.398438 L 40.523438 48.9375 C 40.523438 48.984375 40.523438 49.082031 40.398438 49.082031 L 22.058594 49.082031 C 21.6875 49.082031 21.761719 49.082031 21.761719 48.761719 L 21.761719 27.621094 C 21.761719 27.273438 21.761719 27.300781 22.082031 27.300781 L 40.011719 27.300781 C 40.359375 27.300781 40.332031 27.300781 40.332031 27.597656 L 40.332031 33.085938 L 29.207031 33.285156 C 28.835938 33.285156 28.886719 33.285156 28.886719 33.605469 L 28.886719 35.289062 C 28.886719 35.484375 28.886719 35.484375 29.082031 35.484375 L 39.269531 35.484375 C 39.542969 35.484375 39.519531 35.484375 39.519531 35.730469 L 39.519531 40.527344 L 29.128906 40.75 Z M 28.933594 40.777344 "/>
<path style=" stroke:none;fill-rule:nonzero;fill:rgb(0%,0%,0%);fill-opacity:1;" d="M 62.511719 33.359375 L 53.90625 33.359375 C 52.992188 33.339844 52.089844 33.582031 51.308594 34.054688 C 50.230469 34.71875 49.480469 35.800781 49.234375 37.042969 C 48.917969 38.382812 49.160156 39.792969 49.902344 40.953125 C 50.628906 42.074219 51.816406 42.808594 53.144531 42.957031 C 53.40625 42.980469 53.671875 42.980469 53.933594 42.957031 L 62.589844 42.957031 C 62.738281 42.957031 62.769531 42.957031 62.769531 43.132812 L 62.769531 48.871094 C 62.769531 48.996094 62.769531 49.019531 62.621094 49.019531 L 52.554688 49.019531 C 49.558594 48.875 46.738281 47.550781 44.714844 45.335938 C 43.359375 43.847656 42.480469 41.988281 42.195312 39.996094 C 41.839844 37.941406 42.082031 35.832031 42.886719 33.914062 C 43.894531 31.496094 45.773438 29.542969 48.152344 28.449219 C 49.480469 27.808594 50.914062 27.414062 52.382812 27.285156 L 58.144531 27.285156 L 62.171875 32.867188 C 62.292969 33.023438 62.40625 33.191406 62.511719 33.359375 Z M 62.511719 33.359375 "/>
<path style=" stroke:none;fill-rule:nonzero;fill:rgb(0%,0%,0%);fill-opacity:1;" d="M 10.042969 27.304688 L 19.808594 27.304688 C 20.15625 27.304688 20.105469 27.304688 20.105469 27.625 L 20.105469 33.339844 C 20.105469 33.390625 20.105469 33.488281 19.980469 33.488281 L 13.824219 33.488281 C 13.726562 33.488281 13.675781 33.488281 13.675781 33.609375 L 13.675781 48.789062 C 13.675781 49.160156 13.675781 49.085938 13.355469 49.085938 L 6.679688 49.085938 C 6.355469 49.085938 6.40625 49.085938 6.40625 48.789062 L 6.40625 33.753906 C 6.40625 33.433594 6.40625 33.484375 6.136719 33.484375 L 0.226562 33.484375 C -0.0195312 33.484375 0.00390625 33.484375 0.00390625 33.261719 L 0.00390625 27.5 C 0.00390625 27.375 0.00390625 27.300781 0.183594 27.320312 L 10.046875 27.296875 Z M 10.042969 27.304688 "/>
<path style=" stroke:none;fill-rule:nonzero;fill:rgb(0%,0%,0%);fill-opacity:1;" d="M 86.074219 12.316406 L 86.074219 23.746094 C 86.074219 24.140625 86.074219 24.066406 85.730469 24.066406 L 78.507812 24.066406 C 78.136719 24.066406 78.1875 24.066406 78.1875 23.769531 L 78.1875 15.933594 C 78.1875 15.585938 78.1875 15.636719 77.890625 15.636719 L 71.3125 15.636719 C 70.96875 15.636719 71.019531 15.636719 71.019531 15.933594 L 71.019531 23.769531 C 71.019531 24.117188 71.019531 24.066406 70.722656 24.066406 L 63.277344 24.066406 C 63.179688 24.066406 63.128906 24.066406 63.128906 23.917969 L 63.128906 0.851562 C 63.128906 0.453125 63.128906 0.503906 63.476562 0.503906 L 70.695312 0.503906 C 71.019531 0.503906 70.992188 0.503906 70.992188 0.800781 L 70.992188 8.589844 C 70.992188 8.8125 70.992188 8.835938 71.238281 8.835938 L 77.917969 8.835938 C 78.1875 8.835938 78.1875 8.835938 78.1875 8.566406 L 78.1875 0.867188 C 78.1875 0.472656 78.1875 0.519531 78.558594 0.519531 L 85.808594 0.519531 C 86.078125 0.519531 86.078125 0.519531 86.078125 0.792969 Z M 86.074219 12.316406 "/>
<path style=" stroke:none;fill-rule:nonzero;fill:rgb(0%,0%,0%);fill-opacity:1;" d="M 0.71875 0.523438 L 7.9375 0.523438 C 8.257812 0.523438 8.234375 0.523438 8.234375 0.820312 L 8.234375 8.632812 C 8.234375 8.707031 8.234375 8.832031 8.457031 8.832031 L 15.207031 8.832031 C 15.40625 8.832031 15.429688 8.832031 15.429688 8.609375 L 15.429688 0.792969 C 15.429688 0.523438 15.429688 0.523438 15.703125 0.523438 L 23.121094 0.523438 C 23.242188 0.523438 23.316406 0.523438 23.296875 0.703125 L 23.296875 0.925781 C 23.273438 4.707031 23.273438 8.515625 23.273438 12.324219 L 23.273438 23.875 C 23.273438 23.949219 23.273438 24.097656 23.074219 24.097656 L 15.753906 24.097656 C 15.382812 24.097656 15.433594 24.097656 15.433594 23.773438 L 15.433594 16.0625 C 15.433594 15.664062 15.433594 15.664062 15.035156 15.664062 L 8.429688 15.664062 C 8.304688 15.664062 8.230469 15.664062 8.25 15.84375 L 8.25 23.804688 C 8.25 24.152344 8.25 24.101562 7.929688 24.101562 L 0.683594 24.101562 C 0.335938 24.101562 0.386719 24.101562 0.386719 23.78125 L 0.386719 0.882812 C 0.386719 0.488281 0.363281 0.539062 0.707031 0.539062 "/>
<path style=" stroke:none;fill-rule:nonzero;fill:rgb(0%,0%,0%);fill-opacity:1;" d="M 60.261719 6.855469 L 50.582031 6.855469 C 49.601562 6.824219 48.628906 7.082031 47.789062 7.59375 C 46.582031 8.292969 45.730469 9.46875 45.441406 10.832031 C 45.167969 11.9375 45.167969 13.09375 45.441406 14.195312 C 45.9375 16.234375 47.644531 17.753906 49.726562 18.003906 C 50.621094 18.140625 51.535156 18.117188 52.421875 17.929688 C 52.75 17.835938 53.074219 17.722656 53.386719 17.582031 L 53.582031 17.507812 L 53.582031 15.390625 C 53.582031 15.292969 53.582031 15.242188 53.4375 15.242188 L 49.652344 15.242188 C 49.355469 15.242188 49.378906 15.242188 49.378906 14.996094 L 49.378906 10.542969 C 49.378906 10.296875 49.378906 10.296875 49.625 10.296875 L 60.628906 10.296875 C 60.875 10.296875 60.875 10.296875 60.875 10.542969 L 60.875 20.878906 C 58.359375 23.054688 55.597656 24.167969 52.691406 24.492188 C 52 24.570312 51.308594 24.609375 50.613281 24.613281 C 47.847656 24.6875 45.125 23.949219 42.773438 22.488281 C 39.988281 20.808594 38.054688 18.019531 37.457031 14.820312 C 36.75 11.53125 37.457031 8.097656 39.414062 5.355469 C 40.851562 3.3125 42.890625 1.765625 45.25 0.929688 C 46.609375 0.40625 48.042969 0.0976562 49.5 0.015625 L 55.460938 0.015625 L 60.183594 6.699219 Z M 60.261719 6.855469 "/>
<path style=" stroke:none;fill-rule:nonzero;fill:rgb(0%,0%,0%);fill-opacity:1;" d="M 34.769531 12.316406 L 34.769531 23.746094 C 34.769531 24.144531 34.769531 24.066406 34.421875 24.066406 L 27.203125 24.066406 C 26.855469 24.066406 26.878906 24.066406 26.878906 23.769531 L 26.878906 0.75 L 34.558594 0.527344 C 34.78125 0.527344 34.78125 0.527344 34.78125 0.75 L 34.78125 12.320312 Z M 34.769531 12.316406 "/>
<path style=" stroke:none;fill-rule:nonzero;fill:rgb(0%,0%,0%);fill-opacity:1;" d="M 199.476562 48.792969 L 160.800781 48.792969 C 160.578125 48.792969 160.480469 48.714844 160.503906 48.496094 L 160.503906 0.996094 C 160.503906 0.152344 160.40625 0.28125 161.21875 0.28125 L 175.933594 0.28125 C 176.773438 0.28125 176.675781 0.183594 176.675781 0.996094 L 176.675781 34.078125 C 176.675781 34.917969 176.675781 34.917969 177.492188 34.917969 L 199.472656 34.917969 Z M 199.476562 48.792969 "/>
<path style=" stroke:none;fill-rule:nonzero;fill:rgb(0%,0%,0%);fill-opacity:1;" d="M 158.304688 48.785156 L 140.605469 48.785156 C 140.179688 48.839844 139.769531 48.609375 139.59375 48.21875 C 137.269531 44.359375 134.917969 40.503906 132.59375 36.667969 C 132.523438 36.519531 132.421875 36.382812 132.296875 36.273438 C 132.164062 36.410156 132.054688 36.566406 131.976562 36.742188 C 129.578125 40.625 127.195312 44.507812 124.832031 48.390625 C 124.710938 48.683594 124.410156 48.863281 124.09375 48.832031 L 106.933594 48.832031 L 107.207031 47.671875 L 119.867188 28.65625 C 120.78125 27.273438 121.671875 25.914062 122.609375 24.550781 C 122.832031 24.3125 122.832031 23.945312 122.609375 23.707031 C 119.277344 18.664062 115.9375 13.613281 112.597656 8.550781 L 107.355469 0.695312 C 107.28125 0.199219 107.402344 0.273438 107.5 0.273438 L 125.132812 0.273438 C 125.449219 0.269531 125.738281 0.46875 125.847656 0.769531 L 132.273438 11.398438 L 132.472656 11.746094 C 132.695312 11.746094 132.71875 11.523438 132.820312 11.375 C 134.996094 7.8125 137.171875 4.277344 139.324219 0.71875 C 139.460938 0.425781 139.765625 0.25 140.089844 0.273438 L 157.570312 0.273438 C 157.550781 0.464844 157.472656 0.644531 157.347656 0.792969 L 150.070312 11.75 L 142.257812 23.519531 C 141.960938 23.9375 141.960938 23.964844 142.257812 24.386719 L 151.109375 37.738281 L 158.105469 48.222656 C 158.226562 48.386719 158.292969 48.582031 158.304688 48.785156 Z M 158.304688 48.785156 "/>
<path style=" stroke:none;fill-rule:nonzero;fill:rgb(0%,0%,0%);fill-opacity:1;" d="M 96.3125 44.6875 L 96.3125 4.457031 C 96.460938 4.457031 96.492188 4.554688 96.535156 4.632812 L 109.914062 24.167969 C 110.234375 24.636719 110.160156 24.5625 109.914062 24.957031 L 96.632812 44.292969 C 96.5625 44.449219 96.453125 44.585938 96.3125 44.6875 Z M 96.3125 44.6875 "/>
</g>
</svg>
