<?xml version="1.0" encoding="UTF-8"?>
<svg id="Layer_1" data-name="Layer 1" xmlns="http://www.w3.org/2000/svg" version="1.1" viewBox="0 0 1366 768">
  <defs>
    <style>
      .cls-1 {
        fill: #000;
        stroke-width: 0px;
      }

      .cls-2 {
        fill: none;
        stroke: #000;
        stroke-width: 3.8px;
      }
    </style>
  </defs>
  <path class="cls-1" d="M382.2,196.3h26.7v84.6c0,10.9-2.8,19.6-8.5,26.3-5.7,6.7-13.2,10-22.5,10s-11.7-1.6-17.4-4.8v-26.8c5.3,3.5,9.2,5.3,11.5,5.3,6.8,0,10.1-4.3,10.1-12.9v-81.7Z"/>
  <path class="cls-1" d="M471.7,316.9c-14.2,0-25.1-5.5-32.5-16.4-7.5-10.9-11.2-26.6-11.2-47.2s3.7-33.8,11.2-44.4c7.5-10.6,17.9-15.9,31.3-15.9s25.2,5.3,32.7,16c7.6,10.6,11.3,25.8,11.3,45.6s-3.7,35.1-11.2,46c-7.4,10.9-18,16.4-31.8,16.4ZM470.7,219.7c-9.6,0-14.5,11.3-14.5,33.9s1.2,24.3,3.7,29.2c2.4,4.9,6,7.3,10.6,7.3s8.8-2.4,11.5-7.3c2.7-4.9,4-14.4,4-28.6,0-23-5.1-34.5-15.3-34.5Z"/>
  <path class="cls-1" d="M534.5,196.3h54v25h-27.3v21.7h23.7v24.4h-23.7v21.4h27.5v25.1h-54.2v-117.7Z"/>
  <path class="cls-1" d="M598.6,196.3h30c6.6,16.9,11.5,30,14.5,39.1h.4c3-9.4,7.8-22.4,14.3-39.1h30.7l-31.6,64.4v53.2h-27.1v-53.2l-31.1-64.4Z"/>
  <path class="cls-2" d="M358.6,316.6h27.9l14.5,52c2.8,10.3,4.6,19.1,5.6,26.4h.4c.9-6.4,1.9-11.7,2.9-15.8l16.2-62.6h28.6l-35.3,117.7h-24.8l-36-117.7Z"/>
  <path class="cls-2" d="M544.7,434.3h-27.8l-4.5-19.7h-28.2l-4.7,19.7h-27.2l31.2-117.7h30l31.2,117.7ZM507.3,393.5c-4-17.5-7-34.2-9-50h-.4c-2.1,16.3-5.1,32.9-8.9,50h18.2Z"/>
  <path class="cls-2" d="M558.2,316.6h27l33.9,67.9-1-12.7v-55.2h26.7v117.7h-27.4l-33.2-66.8.7,14.6v52.2h-26.7v-117.7Z"/>
  <path class="cls-2" d="M714.4,316.6h24.9c17.3,0,30.4,4.9,39.4,14.8,9,9.8,13.5,24.2,13.5,43.1s-2.2,25.9-6.7,34.7c-4.4,8.8-10.6,15.2-18.6,19.1-8,3.9-16.8,5.9-26.4,5.9h-26.2v-117.7ZM741.1,341.7v67.5c8.1-.7,13.8-3.6,17.2-8.6s5-13.3,5-24.8-.6-12.6-1.8-17.3c-1.2-4.7-2.9-8.4-5.2-10.9-2.3-2.6-4.6-4.1-6.8-4.7-2.2-.6-5-1-8.4-1.1Z"/>
  <path class="cls-2" d="M810.2,316.6h54v25h-27.3v21.7h23.7v24.4h-23.7v21.4h27.5v25.1h-54.2v-117.7Z"/>
  <path class="cls-2" d="M885.5,316.6h31.1c12.6,0,22.5,3.2,29.8,9.7,7.3,6.5,10.9,15.2,10.9,26.4s-1.4,11.2-4.1,16.5c-2.8,5.3-6.8,9.3-12.1,12l21.3,53.1h-28.2l-21.6-53.6h-.4v53.6h-26.7v-117.7ZM912.2,339.4v27.9c11.8-.2,17.7-4.4,17.7-12.4s-1.4-9.4-4.1-11.7c-2.7-2.3-7.3-3.6-13.6-3.8Z"/>
  <path class="cls-1" d="M369.5,437h26.7v90.4h21.2v27.2h-47.9v-117.7Z"/>
  <path class="cls-1" d="M436.4,437h26.7v117.7h-26.7v-117.7Z"/>
  <path class="cls-1" d="M489.2,437h27l33.9,67.9-1-12.7v-55.2h26.7v117.7h-27.4l-33.2-66.8.7,14.6v52.2h-26.7v-117.7Z"/>
  <path class="cls-1" d="M601.1,437h24.9c17.3,0,30.4,4.9,39.4,14.8,9,9.8,13.5,24.2,13.5,43.1s-2.2,25.9-6.7,34.7c-4.4,8.8-10.6,15.2-18.6,19.1-8,3.9-16.8,5.9-26.4,5.9h-26.2v-117.7ZM627.8,462v67.5c8.1-.7,13.8-3.6,17.2-8.6s5-13.3,5-24.8-.6-12.6-1.8-17.3c-1.2-4.7-2.9-8.4-5.2-10.9-2.3-2.6-4.6-4.1-6.8-4.7-2.2-.6-5-1-8.4-1.1Z"/>
  <path class="cls-1" d="M696.9,437h54v25h-27.3v21.7h23.7v24.4h-23.7v21.4h27.5v25.1h-54.2v-117.7Z"/>
  <path class="cls-1" d="M772.2,437h27l33.9,67.9-1-12.7v-55.2h26.7v117.7h-27.4l-33.2-66.8.7,14.6v52.2h-26.7v-117.7Z"/>
  <path class="cls-1" d="M880.5,542.8c0-4,1.4-7.4,4.3-10.3,2.8-2.9,6.3-4.3,10.4-4.3s7.5,1.4,10.4,4.3c2.9,2.9,4.4,6.2,4.4,10.2s-1.5,7.4-4.5,10.4c-3,3-6.4,4.5-10.4,4.5s-7.5-1.4-10.4-4.3c-2.9-2.8-4.3-6.3-4.3-10.4Z"/>
</svg>