<?xml version="1.0" encoding="UTF-8"?>
<svg id="Layer_1" data-name="Layer 1" xmlns="http://www.w3.org/2000/svg" viewBox="0 0 609.1368 364.373">
  <defs>
    <style>
      .cls-1 {
        fill: none;
        stroke: #fff;
        stroke-width: 3.761px;
      }

      .cls-2 {
        fill: #fff;
        stroke-width: 0px;
      }
    </style>
  </defs>
  <path class="cls-2" d="M26.0762,3.2617h26.709v84.6211c0,10.873-2.8359,19.6436-8.5063,26.3125-5.6719,6.6709-13.1782,10.0049-22.522,10.0049-5.877,0-11.6655-1.6172-17.3647-4.8477v-26.7979c5.3467,3.5264,9.1963,5.2891,11.5474,5.2891,6.7568,0,10.1367-4.2891,10.1367-12.8691V3.2617Z"/>
  <path class="cls-2" d="M115.6348,123.8477c-14.2222,0-25.0645-5.4502-32.5269-16.3516-7.4634-10.9004-11.1948-26.6348-11.1948-47.2031,0-18.9805,3.7466-33.7744,11.2388-44.3828C90.6446,5.3037,101.0904,0,114.4888,0c14.2798,0,25.1948,5.3193,32.7466,15.9541,7.5508,10.6377,11.3271,25.8281,11.3271,45.5732s-3.7173,35.0684-11.1504,45.9688c-7.4351,10.9014-18.0264,16.3516-31.7773,16.3516ZM114.6651,26.709c-9.6387,0-14.4565,11.3125-14.4565,33.9365,0,14.5752,1.2192,24.2998,3.6582,29.1768,2.438,4.8789,5.979,7.3164,10.6221,7.3164,4.9941,0,8.8286-2.4375,11.5029-7.3164,2.6738-4.877,4.0107-14.4258,4.0107-28.6475,0-22.9766-5.1123-34.4658-15.3374-34.4658Z"/>
  <path class="cls-2" d="M178.3956,3.2617h54.0347v25.0332h-27.3257v21.6846h23.7119v24.417h-23.7119v21.4199h27.502v25.1221h-54.2109V3.2617Z"/>
  <path class="cls-2" d="M242.4791,3.2617h29.9707c6.6396,16.9238,11.459,29.9697,14.4561,39.1367h.3525c2.9971-9.4014,7.7568-22.4473,14.2798-39.1367h30.6763l-31.5576,64.4355v53.2412h-27.0615v-53.2412L242.4791,3.2617Z"/>
  <path class="cls-1" d="M2.5411,123.6133h27.8545l14.5444,52.0068c2.7617,10.2842,4.6416,19.0703,5.6416,26.3555h.3525c.8813-6.4043,1.8511-11.6641,2.9087-15.7773l16.2192-62.585h28.5601l-35.3472,117.6768h-24.7695L2.5411,123.6133Z"/>
  <path class="cls-1" d="M188.6211,241.29h-27.7666l-4.4956-19.6572h-28.2075l-4.6719,19.6572h-27.2378l31.2046-117.6768h29.9702l31.2046,117.6768ZM151.2461,200.4775c-3.9971-17.5107-6.9941-34.1709-8.9912-49.9795h-.3525c-2.1152,16.2783-5.0835,32.9385-8.9028,49.9795h18.2466Z"/>
  <path class="cls-1" d="M202.1075,123.6133h26.9736l33.9365,67.873-.9692-12.6934v-55.1797h26.7085v117.6768h-27.4141l-33.2314-66.8154.7051,14.6318v52.1836h-26.709v-117.6768Z"/>
  <path class="cls-1" d="M358.3062,123.6133h24.9453c17.2773,0,30.4111,4.9219,39.4023,14.7646,8.9912,9.8438,13.4863,24.2266,13.4863,43.1484,0,14.3389-2.2188,25.915-6.6553,34.7295-4.4375,8.8154-10.6367,15.1924-18.5986,19.1279-7.9639,3.9385-16.7637,5.9062-26.4004,5.9062h-26.1797v-117.6768ZM385.0152,148.6465v67.5215c8.1094-.7051,13.8389-3.5703,17.1885-8.5947s5.0244-13.2949,5.0244-24.8135c0-6.8164-.5879-12.5898-1.7627-17.3203-1.1768-4.7305-2.9248-8.374-5.2451-10.9307-2.3223-2.5566-4.584-4.1279-6.7871-4.7158-2.2041-.5869-5.0107-.9697-8.418-1.1465Z"/>
  <path class="cls-1" d="M454.1226,123.6133h54.0342v25.0332h-27.3252v21.6846h23.7109v24.417h-23.7109v21.4199h27.502v25.1221h-54.2109v-117.6768Z"/>
  <path class="cls-1" d="M529.4009,123.6133h31.1162c12.5742,0,22.5059,3.2324,29.7939,9.6963,7.2861,6.4648,10.9297,15.249,10.9297,26.3555,0,5.7012-1.3809,11.21-4.1426,16.5283-2.7627,5.3193-6.7871,9.3301-12.0762,12.0322l21.332,53.0645h-28.208l-21.5957-53.5938h-.4404v53.5938h-26.709v-117.6768ZM556.1099,146.3545v27.9434c11.8115-.2344,17.7168-4.377,17.7168-12.4287,0-5.4648-1.3662-9.373-4.0986-11.7236-2.7324-2.3496-7.2725-3.6143-13.6182-3.791Z"/>
  <path class="cls-2" d="M13.3829,243.9629h26.709v90.4404h21.1553v27.2373H13.3829v-117.6777Z"/>
  <path class="cls-2" d="M80.2872,243.9629h26.709v117.6777h-26.709v-117.6777Z"/>
  <path class="cls-2" d="M133.0879,243.9629h26.9736l33.9365,67.874-.9692-12.6934v-55.1807h26.7085v117.6777h-27.4141l-33.2314-66.8164.7051,14.6328v52.1836h-26.709v-117.6777Z"/>
  <path class="cls-2" d="M245.0357,243.9629h24.9458c17.2773,0,30.4111,4.9229,39.4023,14.7646,8.9912,9.8438,13.4868,24.2275,13.4868,43.1484,0,14.3398-2.2192,25.916-6.6553,34.7305-4.438,8.8154-10.6372,15.1924-18.5991,19.1279-7.9639,3.9385-16.7632,5.9062-26.4004,5.9062h-26.1802v-117.6777ZM271.7447,268.9971v67.5215c8.1094-.7051,13.8394-3.5703,17.189-8.5947s5.0244-13.2949,5.0244-24.8135c0-6.8164-.5884-12.5898-1.7632-17.3213-1.1763-4.7295-2.9238-8.374-5.2446-10.9297-2.3223-2.5566-4.5835-4.1279-6.7876-4.7158-2.2036-.5869-5.0103-.9697-8.418-1.1465Z"/>
  <path class="cls-2" d="M340.8531,243.9629h54.0342v25.0342h-27.3252v21.6846h23.7109v24.417h-23.7109v21.4199h27.502v25.1221h-54.2109v-117.6777Z"/>
  <path class="cls-2" d="M416.1314,243.9629h26.9727l33.9375,67.874-.9697-12.6934v-55.1807h26.709v117.6777h-27.4141l-33.2324-66.8164.7061,14.6328v52.1836h-26.709v-117.6777Z"/>
  <path class="cls-2" d="M524.3765,349.7402c0-3.9951,1.4248-7.4326,4.2754-10.3125,2.8496-2.8789,6.3027-4.3193,10.3574-4.3193s7.5371,1.4248,10.4453,4.2744c2.9092,2.8516,4.3633,6.2451,4.3633,10.1816s-1.4844,7.3906-4.4512,10.3574c-2.9678,2.9668-6.4209,4.4512-10.3574,4.4512-4.0547,0-7.5078-1.4258-10.3574-4.2754-2.8506-2.8496-4.2754-6.3018-4.2754-10.3574Z"/>
</svg>